<?xml version="1.0" encoding="utf-8"?>
<!-- Generator: Adobe Illustrator 14.0.0, SVG Export Plug-In . SVG Version: 6.00 Build 43363)  -->
<!DOCTYPE svg PUBLIC "-//W3C//DTD SVG 1.1//EN" "http://www.w3.org/Graphics/SVG/1.1/DTD/svg11.dtd">
<svg version="1.1" id="Ebene_1" xmlns="http://www.w3.org/2000/svg" xmlns:xlink="http://www.w3.org/1999/xlink" x="0px" y="0px"
	 width="492.479px" height="305.208px" viewBox="0 0 492.479 305.208" enable-background="new 0 0 492.479 305.208"
	 xml:space="preserve">
<g>
	<path fill="#FFFFFF" d="M190.427,105.737c-26.209-20.126-30.723-57.277-10.082-82.973c20.639-25.696,58.616-30.212,84.825-10.081
		c26.207,20.124,30.722,57.274,10.081,82.969C254.614,121.35,216.634,125.864,190.427,105.737"/>
	<path fill="#FFFFFF" d="M63.886,124.857c-20.969-16.1-24.578-45.821-8.066-66.377c16.511-20.559,46.892-24.169,67.859-8.068
		c20.967,16.104,24.578,45.822,8.068,66.379C115.234,137.35,84.852,140.961,63.886,124.857"/>
	<path fill="#FFFFFF" d="M15.826,217.306c-17.472-13.417-20.482-38.184-6.723-55.316c13.761-17.129,39.078-20.14,56.553-6.72
		c17.47,13.417,20.479,38.185,6.721,55.314C58.617,227.715,33.297,230.724,15.826,217.306"/>
	<path fill="#FFFFFF" d="M211.931,254.642c-6.99-5.367-8.193-15.275-2.688-22.126c5.503-6.853,15.632-8.057,22.621-2.69
		c6.988,5.368,8.192,15.275,2.689,22.129C229.049,258.805,218.919,260.011,211.931,254.642"/>
	<path fill="#FFFFFF" d="M154.542,300.51c-8.734-6.708-10.24-19.094-3.359-27.657c6.879-8.565,19.539-10.071,28.275-3.362
		c8.735,6.709,10.242,19.093,3.361,27.659C175.938,305.714,163.278,307.219,154.542,300.51"/>
	<path fill="#FFFFFF" d="M70.414,295.937c-13.105-10.062-15.362-28.639-5.041-41.487c10.318-12.849,29.309-15.105,42.412-5.04
		c13.106,10.062,15.361,28.637,5.041,41.486C102.506,303.742,83.518,306,70.414,295.937"/>
	<polygon fill="#FFFFFF" points="168.456,157.107 168.456,205.936 159.813,205.936 159.813,157.107 143.649,157.107 
		143.649,149.038 184.583,149.038 184.583,157.107 	"/>
	<path fill="#FFFFFF" d="M204.918,183.161c-1.163-4.422-3.969-6.633-8.418-6.633c-1.016,0-1.965,0.152-2.857,0.462
		c-0.889,0.306-1.7,0.748-2.428,1.326c-0.729,0.575-1.354,1.271-1.873,2.081c-0.52,0.811-0.916,1.731-1.186,2.764H204.918z
		 M213.484,189.942h-25.885c0.223,2.947,1.186,5.295,2.893,7.039c1.705,1.72,3.893,2.578,6.563,2.578
		c2.077,0,3.795-0.489,5.156-1.474c1.335-0.98,2.855-2.801,4.562-5.454l7.045,3.906c-1.088,1.843-2.238,3.422-3.449,4.735
		c-1.211,1.314-2.51,2.396-3.894,3.242c-1.386,0.85-2.881,1.469-4.487,1.862c-1.608,0.392-3.352,0.59-5.23,0.59
		c-5.389,0-9.715-1.719-12.979-5.16c-3.264-3.464-4.896-8.057-4.896-13.781c0-5.676,1.581-10.269,4.747-13.783
		c3.19-3.464,7.417-5.197,12.684-5.197c5.316,0,9.518,1.686,12.609,5.05c3.065,3.343,4.598,7.974,4.598,13.894L213.484,189.942z"/>
	<path fill="#FFFFFF" d="M227.431,187.878c0,3.441,0.928,6.242,2.782,8.402c1.902,2.188,4.302,3.28,7.194,3.28
		c3.09,0,5.586-1.056,7.491-3.169c1.902-2.187,2.855-4.962,2.855-8.329c0-3.365-0.953-6.141-2.855-8.328
		c-1.905-2.137-4.377-3.206-7.418-3.206c-2.87,0-5.266,1.082-7.194,3.242C228.381,181.959,227.431,184.66,227.431,187.878
		 M247.234,170.042h8.382v35.894h-8.382v-3.759c-3.438,3.194-7.135,4.791-11.089,4.791c-4.994,0-9.123-1.792-12.387-5.381
		c-3.24-3.659-4.857-8.229-4.857-13.709c0-5.38,1.617-9.862,4.857-13.45c3.239-3.586,7.292-5.381,12.164-5.381
		c4.203,0,7.974,1.721,11.312,5.159V170.042z"/>
	<path fill="#FFFFFF" d="M291.258,171.59v11.019c-1.903-2.309-3.61-3.893-5.116-4.753c-1.484-0.886-3.228-1.327-5.23-1.327
		c-3.139,0-5.748,1.094-7.825,3.28c-2.076,2.188-3.114,4.926-3.114,8.219c0,3.366,1.002,6.13,3.004,8.291
		c2.025,2.162,4.609,3.242,7.752,3.242c2.002,0,3.768-0.43,5.302-1.29c1.483-0.834,3.227-2.455,5.229-4.864v10.945
		c-3.389,1.743-6.774,2.616-10.159,2.616c-5.591,0-10.263-1.793-14.021-5.381c-3.758-3.61-5.636-8.094-5.636-13.451
		c0-5.354,1.902-9.876,5.711-13.561c3.806-3.685,8.478-5.528,14.019-5.528C284.731,169.047,288.092,169.896,291.258,171.59"/>
	<path fill="#FFFFFF" d="M298.24,143.693h8.345v29.334c2.967-2.654,6.241-3.98,9.828-3.98c4.077,0,7.343,1.315,9.788,3.943
		c2.078,2.285,3.115,5.934,3.115,10.945v22h-8.344v-21.227c0-2.875-0.512-4.958-1.539-6.244c-1.025-1.293-2.676-1.937-4.951-1.937
		c-2.918,0-4.969,0.898-6.156,2.69c-1.161,1.818-1.741,4.938-1.741,9.359v17.357h-8.345V143.693z"/>
	<polygon fill="#FFFFFF" points="392.512,157.107 372.562,157.107 372.562,170.779 391.81,170.779 391.81,178.85 372.562,178.85 
		372.562,205.936 363.919,205.936 363.919,149.038 392.512,149.038 	"/>
	<path fill="#FFFFFF" d="M409.35,205.936h-8.344v-35.895h8.344V205.936z M399.746,155.117c0-1.449,0.529-2.702,1.595-3.759
		c1.06-1.054,2.336-1.584,3.819-1.584c1.507,0,2.793,0.53,3.856,1.584c1.062,1.032,1.595,2.299,1.595,3.796
		c0,1.499-0.533,2.777-1.595,3.833c-1.038,1.057-2.313,1.584-3.819,1.584c-1.51,0-2.797-0.527-3.856-1.584
		C400.275,157.932,399.746,156.642,399.746,155.117"/>
	<path fill="#FFFFFF" d="M417.92,170.042h8.345v3.206c1.53-1.596,2.892-2.689,4.08-3.279c1.211-0.613,2.644-0.922,4.301-0.922
		c2.201,0,4.5,0.715,6.897,2.138l-3.819,7.592c-1.582-1.13-3.127-1.695-4.636-1.695c-4.551,0-6.823,3.415-6.823,10.244v18.61h-8.345
		V170.042z"/>
	<path fill="#FFFFFF" d="M467.316,176.159l-6.896,3.648c-1.09-2.185-2.438-3.279-4.043-3.279c-0.769,0-1.422,0.252-1.965,0.754
		c-0.545,0.504-0.817,1.147-0.817,1.933c0,1.375,1.608,2.736,4.823,4.086c4.423,1.89,7.402,3.631,8.935,5.228
		c1.533,1.595,2.3,3.741,2.3,6.439c0,3.46-1.285,6.355-3.856,8.687c-2.498,2.209-5.513,3.313-9.048,3.313
		c-6.06,0-10.349-2.936-12.87-8.809l7.122-3.278c0.986,1.72,1.742,2.813,2.261,3.278c1.014,0.936,2.226,1.401,3.635,1.401
		c2.818,0,4.229-1.276,4.229-3.833c0-1.474-1.09-2.849-3.267-4.127c-0.84-0.417-1.682-0.823-2.52-1.216
		c-0.841-0.393-1.695-0.797-2.558-1.216c-2.427-1.181-4.134-2.359-5.119-3.538c-1.263-1.497-1.892-3.428-1.892-5.786
		c0-3.119,1.074-5.698,3.228-7.739c2.199-2.038,4.869-3.058,8.009-3.058C461.629,169.048,465.066,171.42,467.316,176.159"/>
	<polygon fill="#FFFFFF" points="485.749,177.781 485.749,205.936 477.404,205.936 477.404,177.781 473.845,177.781 
		473.845,170.042 477.404,170.042 477.404,156.885 485.749,156.885 485.749,170.042 492.238,170.042 492.238,177.781 	"/>
	<path fill="#FFFFFF" d="M270.323,254.696c4.551,0,8.319-0.914,11.628-4.155c2.941-2.923,4.597-6.85,4.597-10.962
		c0-4.384-1.746-8.493-5.008-11.463c-3.312-2.967-6.896-3.745-11.217-3.745h-3.997v30.325H270.323z M264.119,222.317h6.252
		c5.056,0,9.053,0.822,12.867,4.339c3.632,3.378,5.515,7.991,5.515,12.923c0,4.75-1.836,9.271-5.33,12.605
		c-3.815,3.653-7.905,4.567-13.052,4.567h-6.252V222.317z"/>
	<path fill="#FFFFFF" d="M310.271,244.467c-0.507-3.883-3.723-7.354-8.089-7.354c-4.321,0-7.907,3.38-8.274,7.354H310.271z
		 M293.907,246.385c-0.139,5.345,3.587,8.905,8.503,8.905c3.311,0,5.976-1.963,7.49-4.795l1.747,1.005
		c-1.93,3.654-5.33,5.708-9.512,5.708c-6.297,0-10.297-5.068-10.297-11.052c0-5.891,4.091-10.96,10.297-10.96
		c6.434,0,10.248,5.113,10.201,11.188H293.907z"/>
	<path fill="#FFFFFF" d="M332.289,235.651v12.652c0,2.146,0.046,4.292-1.285,6.074c-1.473,1.919-3.953,2.83-6.346,2.83
		c-2.389,0-4.871-0.911-6.342-2.83c-1.332-1.782-1.287-3.928-1.287-6.074v-12.652h2.069v11.921c0,4.065,0.459,7.717,5.56,7.717
		c5.104,0,5.562-3.651,5.562-7.717v-11.921H332.289z"/>
	<polygon fill="#FFFFFF" points="341.346,256.752 339.279,256.752 339.279,237.57 336.935,237.57 336.935,235.651 339.279,235.651 
		339.279,228.116 341.346,228.116 341.346,235.651 345.07,235.651 345.07,237.57 341.346,237.57 	"/>
	<path fill="#FFFFFF" d="M357.572,239.488c-0.688-1.461-2.065-2.374-3.721-2.374c-1.793,0-3.632,1.46-3.632,3.287
		c0,5.07,10.343,2.603,10.343,10.231c0,3.881-3.035,6.575-6.85,6.575c-3.538,0-6.434-2.145-7.309-5.571l2.022-0.64
		c0.783,2.512,2.484,4.292,5.286,4.292c2.667,0,4.78-2.1,4.78-4.748c0-2.604-2.023-3.425-4.138-4.157
		c-2.895-1.05-6.203-2.281-6.203-5.845c0-3.197,2.711-5.343,5.791-5.343c2.16,0,4.504,1.416,5.425,3.378L357.572,239.488z"/>
	<path fill="#FFFFFF" d="M382.166,240.539c-2.021-2.191-4.457-3.425-7.489-3.425c-5.011,0-8.781,4.247-8.781,9.042
		c0,4.796,3.723,9.133,8.734,9.133c3.031,0,5.883-1.46,7.812-3.79v2.786c-2.16,1.873-4.871,2.923-7.72,2.923
		c-6.297,0-10.895-4.886-10.895-11.052c0-6.12,4.689-10.961,10.941-10.961c2.755,0,5.285,0.822,7.397,2.604V240.539z"/>
	<path fill="#FFFFFF" d="M389.893,219.074v19.867h0.093c1.239-2.33,3.537-3.746,6.295-3.746c5.469,0,6.985,3.379,6.985,8.814v12.742
		h-2.067V244.01c0-3.789-0.459-6.896-5.102-6.896c-5.333,0-6.204,4.932-6.204,9.224v10.414h-2.069v-37.678H389.893z"/>
	<rect x="410.349" y="219.072" fill="#FFFFFF" width="2.068" height="37.68"/>
	<path fill="#FFFFFF" d="M419.497,246.065c0,4.841,3.217,9.224,8.364,9.224c5.423,0,8.363-4.383,8.363-9.453
		c0-4.886-3.354-8.722-8.502-8.722C422.852,237.114,419.497,241.497,419.497,246.065 M438.157,256.752h-2.068v-3.79h-0.094
		c-1.562,2.694-4.963,4.246-8.088,4.246c-6.435,0-10.479-4.978-10.479-11.143c0-6.166,3.999-10.869,10.387-10.869
		c3.265,0,6.39,1.46,8.181,4.11h0.094v-3.655h2.068V256.752z"/>
	<path fill="#FFFFFF" d="M447.308,238.941h0.094c1.24-2.329,3.537-3.745,6.295-3.745c5.468,0,6.986,3.378,6.986,8.812v12.744h-2.068
		v-12.744c0-3.79-0.459-6.895-5.103-6.895c-5.332,0-6.204,4.932-6.204,9.224v10.415h-2.068v-21.102h2.068V238.941z"/>
	<path fill="#FFFFFF" d="M484.493,245.836c0-4.886-3.356-8.722-8.502-8.722c-4.873,0-8.228,4.383-8.228,8.952
		c0,4.84,3.217,9.223,8.365,9.223C481.551,255.289,484.493,250.906,484.493,245.836 M484.355,252.962h-0.094
		c-1.56,2.694-4.963,4.246-8.088,4.246c-6.433,0-10.479-4.976-10.479-11.142c0-6.167,4-10.871,10.389-10.871
		c3.263,0,6.388,1.461,8.179,4.11h0.094v-20.231h2.066v37.678h-2.066V252.962z"/>
</g>
</svg>
